<svg version="1.1" xmlns="http://www.w3.org/2000/svg" xmlns:xlink="http://www.w3.org/1999/xlink" viewBox="0 0 619 45">
  <g>
    <g>
      <path fill="#EF3E42" d="M20,43.2l14.9,0c2.8,0,5.1-2.1,5.1-4.8c0-1.3-0.2-1.9-0.9-3l-0.4-0.9L26.1,14.2l-4.8,7.5l7.2,11.5
        l0.3,0.6c1.3,1.7,0.5,2.9-1.5,2.7l-7.1,0l-0.5,0l-7.1,0c-1.7,0.2-2.3-1.2-1.5-2.7l0.3-0.6L26.3,9.5l-7-3.7L1.2,34.7l-0.3,0.6
        C0.1,36.5,0,37,0,38.3c0,2.7,2.3,4.9,5.1,4.8L20,43.2z"/>
      <path fill="#EF3E42" d="M16.5,28.8l3.4-5.2l3.3,5.2l0.5,0.8c0.4,0.6,0.6,1.4,0.6,2.1c0,2.4-1.9,3.9-4.5,3.9
        c-2.6,0-4.2-1.8-4.2-4.2c0-0.9,0.3-1.7,0.7-2.4L16.5,28.8z"/>
      <path fill="#EF3E42" d="M23.1,7.4c-2.2-1.3-4.2-2.3-4.4-1.9c-0.2,0.4,0.9,2.6,3.1,3.8c2.2,1.3,4.7,1.1,5,0.7
        C27,9.7,25.3,8.7,23.1,7.4z"/>
    </g>
    <g>
      <path fill="#00529B" d="M49.8,3.8l14.7,0l13.8,22.1h0.4c-0.6-3.3-1.3-6.8-1.3-10.2l0-12l14.7,0l0,39.9l-14.7,0L64,22.7h-0.4
        c0.5,2.8,1,5.4,1,8l0,13l-14.7,0L49.8,3.8z"/>
      <path fill="#00529B" d="M108.2,31.9c0,2.3,0.4,4.8,3.4,4.8c1.5,0,2.6-1,2.9-2.3l14.1,0c-1.9,6.8-9.9,9.9-16.7,9.9
        c-9.3,0-17.9-4.6-17.9-14.2c0-9.3,7.6-15.2,17.1-15.2c10.6,0,18.9,6.5,18.2,17L108.2,31.9z M115,26.1c0-1.9-1.5-3.7-3.5-3.7
        c-2.2,0-3.2,1.7-3.2,3.7L115,26.1z"/>
      <path fill="#00529B" d="M142.1,15.6l3.4,15.6h0.4l0.7-4.7l2.9-11l9.5,0l3.9,15.6h0.3l0.7-4.7l2.6-11l15.2,0l-12.2,28.1l-11.6,0
        l-3.2-12.5h-0.4l-0.7,3l-2.7,9.5l-11.8,0l-12-28.1L142.1,15.6z"/>
      <path fill="#00529B" d="M202,3.8l4.7,10.4h0.4c0.4-1.3,0.8-2.5,1.4-3.8l3-6.7l17.2,0l-14.4,22.7l0,17.2l-15,0l0-17.2L184.7,3.8
        L202,3.8z"/>
      <path fill="#00529B" d="M255.8,30c0,9.3-8.7,14.4-18,14.4c-9.3,0-18-5-18-14.4c0-9.9,8.2-15,18-15
        C247.6,14.9,255.8,20.1,255.8,30z M233.7,29.8c0,2.2,1.8,3.9,4,3.9c2.2,0,4-1.6,4-3.9c0-2.3-1.6-4.1-4-4.1
        C235.4,25.6,233.7,27.5,233.7,29.8z"/>
      <path fill="#00529B" d="M282.8,28.8c-1.5-0.8-2.6-1.5-4.4-1.5c-3.8,0-5.7,2.1-5.7,5.6l0,10.8l-14.4,0l0-28.1l14.4,0l-0.3,3.8
        h0.3c2.6-3.7,5.2-4.5,10.1-4.4L282.8,28.8z"/>
      <path fill="#00529B" d="M285,0.7l14.4,0l0,25.3h0.3l1.2-2.4l4.5-8.1l16.8,0l-10.9,13.8l11.5,14.4l-17,0l-6-10.3h-0.3l0,10.3
        l-14.4,0L285,0.7z"/>
      <path fill="#00529B" d="M339.7,4.4l16.1,0c9.4,0,10.6,5.3,10.6,8.7c0,4-3.9,7.2-8.6,9.9c4.5,1.7,7.7,4.9,7.7,9.8
        c0,2-1.6,11-16,11l-13.9,0l0.3-1.7h2.8c1,0,1.4-0.4,1.4-1.3c0-1.4,4.4-31.1,4.4-32.7c0-1.9-0.3-2-2.1-2l-3.1,0L339.7,4.4z
         M346.6,23c-1.2,8.6-2.1,14.7-2.1,16.8c0,1.4,0.2,1.9,1.8,1.9l2.9,0c8.8,0,11.8-5.1,11.8-9c0-4.3-2.7-9.6-13.1-9.6H346.6z
         M346.9,21.1c2.9,0.1,6,0.2,8.8,1.1c3.9-1.5,6.5-5.4,6.5-8.4c0-7.4-6.1-7.4-11.5-7.4c-1,0-1.5,0-1.6,0.8L346.9,21.1z"/>
      <path fill="#00529B" d="M368.2,2.7c3.7-1.9,7.5-2.7,9.6-2.7c0.4,0,0.6,0.2,0.6,0.8c0,2-1.2,9.7-2.5,18
        c-1.3,8.2-2.5,16.9-2.5,20.8c0,0.9,0.5,2,0.9,2c0.7,0,2.9-1.3,4.6-2.2l0.7,1.2c-2.7,1.9-7.7,4.3-8.8,4.3
        c-0.8,0-1.2-1.4-1.2-2.9c0-7.7,4.6-33.8,4.6-37.6c0-1,0-1.7-0.9-1.7c-0.6,0-2.7,0.7-4.5,1.3L368.2,2.7z"/>
      <path fill="#00529B" d="M381.1,35.4c0-10.7,7.3-19.3,15.7-19.3c6.2,0,8.2,4.6,8.2,9.4c0,10.8-7.3,19.3-15.7,19.3
        C383.1,44.8,381.1,40.2,381.1,35.4z M395.3,17.8c-7.7,0-10.2,10.6-10.2,16.5c0,3.8,1,8.9,5.8,8.9c7.7,0,10.2-10.6,10.2-16.5
        C401,22.8,400,17.8,395.3,17.8z"/>
      <path fill="#00529B" d="M406.3,35.4c0-10.7,7.3-19.3,15.7-19.3c6.2,0,8.2,4.6,8.2,9.4c0,10.8-7.3,19.3-15.7,19.3
        C408.3,44.8,406.3,40.2,406.3,35.4z M420.5,17.8c-7.7,0-10.2,10.6-10.2,16.5c0,3.8,1,8.9,5.8,8.9c7.7,0,10.2-10.6,10.2-16.5
        C426.3,22.8,425.3,17.8,420.5,17.8z"/>
      <path fill="#00529B" d="M448,2.7c3.7-1.9,7.5-2.7,9.6-2.7c0.4,0,0.6,0.2,0.6,0.8c0,4-5,31-5,38.8c0,0.9,0.5,2,0.9,2
        c0.7,0,2.9-1.3,4.6-2.2l0.7,1.2c-2.7,1.9-7.7,4.3-8.8,4.3c-0.8,0-1.2-1.4-1.2-2.9c0-2,0.3-5.3,0.5-7.9l-0.2-0.1
        c-2.1,4.3-6.5,11-11.8,11c-4.7,0-6.3-4.9-6.3-8.7c0-9.6,8-19.7,18.6-19.8c0.5,0,1.4,0.1,2.2,0.1c0.5-4.1,1.5-10.6,1.5-12.2
        c0-1,0-1.7-0.9-1.7c-0.6,0-2.8,0.7-4.5,1.3L448,2.7z M451.4,23.8l0.7-5.5c-0.8-0.2-1.7-0.4-2.4-0.4c-6.9,0-14.1,6.5-14.1,17.5
        c0,2.3,0.5,6.2,4.1,6.2C443.4,41.6,449.8,35.3,451.4,23.8z"/>
      <path fill="#00529B" d="M505.6,9.9c-0.5,0-0.7-0.4-0.7-0.8c-0.3-3.2-6.3-4.1-8.7-4.1c-12.4,0-21.3,9.9-21.3,22.8
        c0,8.6,4.5,15.1,14.1,15.1c5.8,0,12-3.5,12.8-6.3c0.1-0.4,0.2-1.2,0.8-1.2c0.4,0,0.6,0.2,0.6,0.6c0,0.5-0.6,3-1.2,5.6
        c-4.4,2.1-9.7,3.3-14.7,3.3c-10.1,0-16.9-6.4-16.9-16.2c0-14,11.2-25.9,26.2-25.9c3.4,0,6.9,0.6,10.1,1.7
        C506.3,9.8,506.1,9.9,505.6,9.9z"/>
      <path fill="#00529B" d="M526.2,38.7c-2.9,3.2-7.5,6.1-11.6,6.1c-6.2,0-8.2-4.6-8.2-9.4c0-10.7,7.3-19.3,15.7-19.3
        c1.5,0,3.6,0.6,3.6,3.7v1.6l1.2-0.9c0.8-0.6,0.8-1.2,1.2-1.2c0.2,0,0.3,0.1,0.3,0.3c0,0.5-0.1,0.9-0.3,1.4
        c-3.4,2.9-13.8,9.1-17.8,11.5l0,1.5c0,3.8,1.2,8.4,6.1,8.4c3.4,0,6.7-2.6,9.2-4.6L526.2,38.7z M522.1,23.5
        c0.2-0.7,0.3-1.5,0.3-2.5c0-1.5-0.7-3.2-2.6-3.2c-5.8,0-9.4,8.1-9.4,13C513.9,28.7,516.4,27.4,522.1,23.5z"/>
      <path fill="#00529B" d="M534,43.6h-3.5c2.2-14.9,3.2-21.8,3.2-23.6c0-0.9-0.1-1.4-0.7-1.4c-0.9,0-3.3,1.5-4.2,2l-0.5-1.1
        c3.4-2.6,7.7-3.5,8.8-3.5c0.3,0,0.7,0.1,0.7,0.5c0,2-0.5,7.4-1.2,11.1l0.1,0.1c1.6-4.1,6.9-11.7,11.8-11.7c3.3,0,4.3,3,4.3,5.6
        c0,3-2.1,15.4-2.1,17.4c0,0.9,0.5,2,0.9,2c0.7,0,2.9-1.3,4.6-2.2l0.7,1.2c-2.7,1.9-7.7,4.3-8.8,4.3c-0.8,0-1.2-1.4-1.2-2.9
        c0-2.8,2.4-13.9,2.4-18.3c0-1.7-0.3-3.8-2.5-3.8c-3.5,0-10,7.1-11.6,17.3L534,43.6z"/>
      <path fill="#00529B" d="M566.5,17.3h6.3l-0.3,1.5h-6.3c-1.9,9.6-3.1,16.5-3.1,20.2c0,1.4,0.2,3.2,2.2,3.2
        c2.3,0,4.5-1.5,6.2-2.7l0.7,1.1c-2.1,2-6,4.3-9.1,4.3c-2.9,0-3.7-2-3.7-4.4c0-4.5,1.1-12.4,3.3-21.7h-3.6l0.3-1.5
        c2.8,0,3.3,0,4-1.2c0.5-0.8,1.9-4.5,2.7-6.7l2-0.2L566.5,17.3z"/>
      <path fill="#00529B" d="M593.4,38.7c-2.9,3.2-7.5,6.1-11.6,6.1c-6.2,0-8.2-4.6-8.2-9.4c0-10.7,7.3-19.3,15.7-19.3
        c1.5,0,3.6,0.6,3.6,3.7v1.6l1.2-0.9c0.8-0.6,0.8-1.2,1.2-1.2c0.2,0,0.3,0.1,0.3,0.3c0,0.5-0.1,0.9-0.3,1.4
        c-3.4,2.9-13.8,9.1-17.8,11.5V34c0,3.8,1.2,8.4,6.1,8.4c3.4,0,6.7-2.6,9.2-4.6L593.4,38.7z M589.4,23.5
        c0.2-0.7,0.3-1.5,0.3-2.5c0-1.5-0.7-3.2-2.6-3.2c-5.8,0-9.4,8.1-9.4,13C581.2,28.7,583.7,27.3,589.4,23.5z"/>
      <path fill="#00529B" d="M602.7,43.6h-3.5c2.2-14.9,3.2-21.8,3.2-23.6c0-0.9-0.1-1.4-0.7-1.4c-0.9,0-3.3,1.5-4.2,2l-0.5-1.1
        c3.4-2.6,7.7-3.5,8.8-3.5c0.3,0,0.7,0.1,0.7,0.5c0,2-0.5,7.4-1.2,11.1l0.1,0.1c2-3.9,6.1-11.7,11.6-11.7c1,0,2,0.6,2,1.6
        c0,1.4-1.8,1.9-2.9,1.9c-0.8,0-1.7-0.2-2.5-0.5c-1.4,0.1-8.1,7.6-9.7,17.5L602.7,43.6z"/>
    </g>
  </g>
</svg>
